<mxfile host="app.diagrams.net" modified="2024-01-19T22:06:27.276Z" agent="Mozilla/5.0 (Windows NT 10.0; Win64; x64) AppleWebKit/537.36 (KHTML, like Gecko) Chrome/120.0.0.0 Safari/537.36" etag="pHpQHpakVG_hQ_WuxNew" version="22.1.20" type="google">
  <diagram name="Page-1" id="fnflWjKPoGKuDmCzDbC5">
    <mxGraphModel grid="1" page="1" gridSize="10" guides="1" tooltips="1" connect="1" arrows="1" fold="1" pageScale="1" pageWidth="827" pageHeight="1169" math="0" shadow="0">
      <root>
        <mxCell id="0" />
        <mxCell id="1" parent="0" />
        <mxCell id="V63mC5yMNqGHgAPoAjjj-1" value="" style="rounded=1;whiteSpace=wrap;html=1;" vertex="1" parent="1">
          <mxGeometry x="70" y="120" width="670" height="350" as="geometry" />
        </mxCell>
        <mxCell id="V63mC5yMNqGHgAPoAjjj-3" value="AD CORP SUBNET" style="swimlane;whiteSpace=wrap;html=1;" vertex="1" parent="1">
          <mxGeometry x="90" y="150" width="170" height="290" as="geometry" />
        </mxCell>
        <mxCell id="V63mC5yMNqGHgAPoAjjj-5" value="Server" style="sketch=0;aspect=fixed;pointerEvents=1;shadow=0;dashed=0;html=1;strokeColor=none;labelPosition=center;verticalLabelPosition=bottom;verticalAlign=top;align=center;fillColor=#00188D;shape=mxgraph.mscae.enterprise.windows_server" vertex="1" parent="V63mC5yMNqGHgAPoAjjj-3">
          <mxGeometry x="20" y="30" width="39" height="50" as="geometry" />
        </mxCell>
        <mxCell id="V63mC5yMNqGHgAPoAjjj-11" value="Workstation" style="sketch=0;pointerEvents=1;shadow=0;dashed=0;html=1;strokeColor=none;fillColor=#505050;labelPosition=center;verticalLabelPosition=bottom;verticalAlign=top;outlineConnect=0;align=center;shape=mxgraph.office.devices.workstation;" vertex="1" parent="V63mC5yMNqGHgAPoAjjj-3">
          <mxGeometry x="98.5" y="190" width="53" height="56" as="geometry" />
        </mxCell>
        <mxCell id="V63mC5yMNqGHgAPoAjjj-13" value="Server" style="sketch=0;aspect=fixed;pointerEvents=1;shadow=0;dashed=0;html=1;strokeColor=none;labelPosition=center;verticalLabelPosition=bottom;verticalAlign=top;align=center;fillColor=#00188D;shape=mxgraph.mscae.enterprise.windows_server" vertex="1" parent="V63mC5yMNqGHgAPoAjjj-3">
          <mxGeometry x="100" y="30" width="39" height="50" as="geometry" />
        </mxCell>
        <mxCell id="V63mC5yMNqGHgAPoAjjj-10" value="Workstation" style="sketch=0;pointerEvents=1;shadow=0;dashed=0;html=1;strokeColor=none;fillColor=#505050;labelPosition=center;verticalLabelPosition=bottom;verticalAlign=top;outlineConnect=0;align=center;shape=mxgraph.office.devices.workstation;" vertex="1" parent="1">
          <mxGeometry x="108.5" y="340" width="53" height="56" as="geometry" />
        </mxCell>
        <mxCell id="V63mC5yMNqGHgAPoAjjj-14" value="Server" style="sketch=0;aspect=fixed;pointerEvents=1;shadow=0;dashed=0;html=1;strokeColor=none;labelPosition=center;verticalLabelPosition=bottom;verticalAlign=top;align=center;fillColor=#00188D;shape=mxgraph.mscae.enterprise.windows_server" vertex="1" parent="1">
          <mxGeometry x="151" y="260" width="39" height="50" as="geometry" />
        </mxCell>
        <mxCell id="V63mC5yMNqGHgAPoAjjj-15" value="ID CORP SUBNET" style="swimlane;whiteSpace=wrap;html=1;" vertex="1" parent="1">
          <mxGeometry x="270" y="150" width="170" height="290" as="geometry" />
        </mxCell>
        <mxCell id="V63mC5yMNqGHgAPoAjjj-20" value="Vault" style="sketch=0;outlineConnect=0;fontColor=#232F3E;gradientColor=none;fillColor=#232F3D;strokeColor=none;dashed=0;verticalLabelPosition=bottom;verticalAlign=top;align=center;html=1;fontSize=12;fontStyle=0;aspect=fixed;pointerEvents=1;shape=mxgraph.aws4.traditional_server;" vertex="1" parent="V63mC5yMNqGHgAPoAjjj-15">
          <mxGeometry x="101" y="32" width="45" height="78" as="geometry" />
        </mxCell>
        <mxCell id="V63mC5yMNqGHgAPoAjjj-21" value="Controller" style="sketch=0;outlineConnect=0;fontColor=#232F3E;gradientColor=none;fillColor=#232F3D;strokeColor=none;dashed=0;verticalLabelPosition=bottom;verticalAlign=top;align=center;html=1;fontSize=12;fontStyle=0;aspect=fixed;pointerEvents=1;shape=mxgraph.aws4.traditional_server;" vertex="1" parent="V63mC5yMNqGHgAPoAjjj-15">
          <mxGeometry x="30" y="160" width="45" height="78" as="geometry" />
        </mxCell>
        <mxCell id="V63mC5yMNqGHgAPoAjjj-22" value="WAZUH" style="sketch=0;outlineConnect=0;fontColor=#232F3E;gradientColor=none;fillColor=#232F3D;strokeColor=none;dashed=0;verticalLabelPosition=bottom;verticalAlign=top;align=center;html=1;fontSize=12;fontStyle=0;aspect=fixed;pointerEvents=1;shape=mxgraph.aws4.traditional_server;" vertex="1" parent="V63mC5yMNqGHgAPoAjjj-15">
          <mxGeometry x="101" y="160" width="45" height="78" as="geometry" />
        </mxCell>
        <mxCell id="V63mC5yMNqGHgAPoAjjj-19" value="Identity" style="sketch=0;outlineConnect=0;fontColor=#232F3E;gradientColor=none;fillColor=#232F3D;strokeColor=none;dashed=0;verticalLabelPosition=bottom;verticalAlign=top;align=center;html=1;fontSize=12;fontStyle=0;aspect=fixed;pointerEvents=1;shape=mxgraph.aws4.traditional_server;" vertex="1" parent="V63mC5yMNqGHgAPoAjjj-15">
          <mxGeometry x="30" y="32" width="45" height="78" as="geometry" />
        </mxCell>
        <mxCell id="V63mC5yMNqGHgAPoAjjj-23" value="Kubernetes Subnet" style="swimlane;whiteSpace=wrap;html=1;" vertex="1" parent="1">
          <mxGeometry x="450" y="150" width="130" height="290" as="geometry" />
        </mxCell>
        <mxCell id="V63mC5yMNqGHgAPoAjjj-27" value="Control Node" style="sketch=0;html=1;dashed=0;whitespace=wrap;fillColor=#2875E2;strokeColor=#ffffff;points=[[0.005,0.63,0],[0.1,0.2,0],[0.9,0.2,0],[0.5,0,0],[0.995,0.63,0],[0.72,0.99,0],[0.5,1,0],[0.28,0.99,0]];verticalLabelPosition=bottom;align=center;verticalAlign=top;shape=mxgraph.kubernetes.icon;prIcon=node" vertex="1" parent="V63mC5yMNqGHgAPoAjjj-23">
          <mxGeometry x="40" y="30" width="50" height="48" as="geometry" />
        </mxCell>
        <mxCell id="V63mC5yMNqGHgAPoAjjj-28" value="Worker Node 1" style="sketch=0;html=1;dashed=0;whitespace=wrap;fillColor=#2875E2;strokeColor=#ffffff;points=[[0.005,0.63,0],[0.1,0.2,0],[0.9,0.2,0],[0.5,0,0],[0.995,0.63,0],[0.72,0.99,0],[0.5,1,0],[0.28,0.99,0]];verticalLabelPosition=bottom;align=center;verticalAlign=top;shape=mxgraph.kubernetes.icon;prIcon=node" vertex="1" parent="V63mC5yMNqGHgAPoAjjj-23">
          <mxGeometry x="40" y="102" width="50" height="48" as="geometry" />
        </mxCell>
        <mxCell id="V63mC5yMNqGHgAPoAjjj-29" value="Worker Node 2" style="sketch=0;html=1;dashed=0;whitespace=wrap;fillColor=#2875E2;strokeColor=#ffffff;points=[[0.005,0.63,0],[0.1,0.2,0],[0.9,0.2,0],[0.5,0,0],[0.995,0.63,0],[0.72,0.99,0],[0.5,1,0],[0.28,0.99,0]];verticalLabelPosition=bottom;align=center;verticalAlign=top;shape=mxgraph.kubernetes.icon;prIcon=node" vertex="1" parent="V63mC5yMNqGHgAPoAjjj-23">
          <mxGeometry x="40" y="180" width="50" height="48" as="geometry" />
        </mxCell>
        <mxCell id="V63mC5yMNqGHgAPoAjjj-30" value="Private Subnet" style="swimlane;whiteSpace=wrap;html=1;" vertex="1" parent="1">
          <mxGeometry x="590" y="150" width="130" height="290" as="geometry" />
        </mxCell>
        <mxCell id="V63mC5yMNqGHgAPoAjjj-34" value="PLC" style="sketch=0;outlineConnect=0;fontColor=#232F3E;gradientColor=none;fillColor=#7AA116;strokeColor=none;dashed=0;verticalLabelPosition=bottom;verticalAlign=top;align=center;html=1;fontSize=12;fontStyle=0;aspect=fixed;pointerEvents=1;shape=mxgraph.aws4.iot_thing_plc;" vertex="1" parent="1">
          <mxGeometry x="616" y="250" width="78" height="78" as="geometry" />
        </mxCell>
        <mxCell id="V63mC5yMNqGHgAPoAjjj-2" value="10.0.x.0/24" style="text;html=1;strokeColor=none;fillColor=none;align=center;verticalAlign=middle;whiteSpace=wrap;rounded=0;" vertex="1" parent="1">
          <mxGeometry x="108.5" y="120" width="60" height="30" as="geometry" />
        </mxCell>
      </root>
    </mxGraphModel>
  </diagram>
</mxfile>
